<?xml version="1.0" encoding="UTF-8"?>
<svg version="1.1" xmlns="http://www.w3.org/2000/svg" width="685" height="382">
  <path
    d="M0 0 C1.134944 -0.00503792 1.134944 -0.00503792 2.29281616 -0.01017761 C4.80167272 -0.0196954 7.31046242 -0.02163213 9.81933594 -0.02270508 C11.57273384 -0.02592063 13.32613147 -0.02928493 15.07952881 -0.03279114 C18.76493957 -0.03878696 22.45032689 -0.04063093 26.13574219 -0.04003906 C30.81891247 -0.03993822 35.50192844 -0.0535066 40.18506241 -0.07081127 C43.81431746 -0.08203656 47.44353669 -0.08395496 51.07280731 -0.08342934 C52.79647089 -0.08459689 54.52013578 -0.08894842 56.24378204 -0.0967617 C79.67936499 -0.19292276 99.1325978 2.51905327 116.82714844 19.30151367 C129.12903519 32.31040541 135.45780836 49.33935166 135.55371094 67.14526367 C134.62924089 81.43492922 129.48508272 94.99965597 120.55371094 106.14526367 C119.62558594 107.31895508 119.62558594 107.31895508 118.67871094 108.51635742 C107.99217748 121.29279763 93.83214361 127.92401527 77.55371094 130.14526367 C73.25444891 130.39107268 68.97212505 130.3802721 64.66699219 130.34057617 C63.09129456 130.33755493 63.09129456 130.33755493 61.48376465 130.33447266 C57.61120145 130.32411709 53.73870116 130.29619578 49.86621094 130.27026367 C41.18308594 130.22901367 32.49996094 130.18776367 23.55371094 130.14526367 C23.22371094 151.59526367 22.89371094 173.04526367 22.55371094 195.14526367 C30.91408691 195.13740845 30.91408691 195.13740845 39.44335938 195.12939453 C67.06347239 195.10524597 94.68358915 195.09180316 122.30371094 195.08276367 C123.59064598 195.08232937 124.87758102 195.08189507 126.2035141 195.0814476 C210.33545654 195.0538639 294.46634599 195.19522606 436.78880048 195.63624221 C439.56262729 195.64529276 442.33645414 195.65433003 445.11028099 195.66336584 C492.25811524 195.81704075 539.40592465 195.97752199 586.55371094 196.14526367 C586.55371094 200.43526367 586.55371094 204.72526367 586.55371094 209.14526367 C498.4877692 209.20271464 410.42178574 209.23509059 122.72554571 208.81954803 C111.47207944 208.78311987 100.21860782 208.75197008 88.96511841 208.72366333 C76.24989109 208.69159513 63.53471073 208.65222143 50.81953931 208.60257393 C44.37661129 208.57761901 37.93371195 208.55563296 31.49074936 208.54190254 C25.63639168 208.52924468 19.78214592 208.50739961 13.92784965 208.47787654 C11.80728334 208.46878951 9.68669933 208.4631116 7.56611454 208.46105111 C4.70556268 208.45775989 1.84533461 208.44239158 -1.01515198 208.42373657 C-1.85118505 208.42567129 -2.68721812 208.427606 -3.54858553 208.42959934 C-9.21795294 208.37359979 -9.21795294 208.37359979 -11.44628906 206.14526367 C-11.64175726 203.46651979 -11.71113811 200.89131637 -11.69352722 198.21154785 C-11.69594164 197.382289 -11.69835605 196.55303016 -11.70084363 195.69864225 C-11.70650504 192.90407795 -11.69779917 190.10973978 -11.68920898 187.31518555 C-11.69028126 185.31816038 -11.69221913 183.32113551 -11.69496155 181.32411194 C-11.69982172 175.88828849 -11.69213961 170.45254674 -11.6820085 165.01673317 C-11.67324701 159.33883375 -11.67498508 153.66093703 -11.67536926 147.98303223 C-11.67443175 138.44643785 -11.66573609 128.90987524 -11.65209961 119.37329102 C-11.63637317 108.33404538 -11.63110146 97.29483455 -11.63183516 86.25557852 C-11.63244473 75.65374358 -11.62734577 65.05192002 -11.61904335 54.4500885 C-11.615505 49.93017996 -11.61367931 45.41027546 -11.61314964 40.8903656 C-11.61214782 35.57169246 -11.60606438 30.25304874 -11.59598351 24.9343853 C-11.59305345 22.97758095 -11.59183415 21.02077321 -11.59241104 19.06396675 C-11.59289894 16.40227267 -11.58727362 13.740662 -11.58000183 11.07897949 C-11.58155043 10.29630691 -11.58309904 9.51363433 -11.58469456 8.7072444 C-11.56046789 3.37362133 -11.56046789 3.37362133 -10.44628906 1.14526367 C-6.90017702 -0.03677368 -3.68986652 -0.00234297 0 0 Z M22.55371094 34.14526367 C22.45450231 36.07288185 22.42571729 38.00415721 22.42431641 39.93432617 C22.42116425 41.17230957 22.41801208 42.41029297 22.4147644 43.68579102 C22.41655419 45.04728226 22.41860514 46.40877318 22.42089844 47.77026367 C22.42022535 49.15649431 22.41925528 50.54272484 22.41799927 51.92895508 C22.41652254 54.83765789 22.41867604 57.74633004 22.42333984 60.6550293 C22.42903713 64.39122966 22.42575799 68.12735819 22.41976738 71.86355591 C22.41616109 74.72705633 22.41730066 77.5905396 22.41989517 80.45404053 C22.42056425 81.83201099 22.41973667 83.20998299 22.41741562 84.58795166 C22.41488802 86.51070121 22.4194207 88.43345619 22.42431641 90.35620117 C22.425112 91.4523877 22.42590759 92.54857422 22.42672729 93.67797852 C22.27466858 96.08949719 22.27466858 96.08949719 23.55371094 97.14526367 C25.22401098 97.25972062 26.89911548 97.30487573 28.57324219 97.32226562 C29.64525879 97.33510086 30.71727539 97.3479361 31.82177734 97.36116028 C32.99144043 97.36854721 34.16110352 97.37593414 35.36621094 97.38354492 C37.16324463 97.39565254 37.16324463 97.39565254 38.99658203 97.40800476 C41.54214013 97.42187124 44.08771702 97.43258185 46.63330078 97.44042969 C50.50948036 97.45756811 54.3847908 97.50142407 58.26074219 97.5456543 C60.73339216 97.55578729 63.2060494 97.56430149 65.67871094 97.57104492 C66.83218018 97.58855301 67.98564941 97.6060611 69.17407227 97.62409973 C78.03264297 97.60048002 84.60191255 95.97095169 91.30371094 90.02026367 C98.94510427 81.79243783 100.95468279 72.69737528 100.81933594 61.81323242 C100.06781369 51.43559433 95.36100643 43.9166397 87.55371094 37.14526367 C81.63742118 33.07964058 75.22145464 33.65168116 68.31542969 33.59838867 C67.03892044 33.5780658 65.76241119 33.55774292 64.44721985 33.5368042 C61.75655413 33.49666605 59.06651096 33.46188539 56.37573242 33.43676758 C52.92079458 33.40435421 49.46638285 33.35468738 46.01175213 33.2988472 C42.71722597 33.24652951 39.42259217 33.20362482 36.12792969 33.16088867 C34.8832341 33.14326477 33.63853851 33.12564087 32.35612488 33.10748291 C30.64348198 33.0918631 30.64348198 33.0918631 28.89624023 33.07592773 C27.38117134 33.0595224 27.38117134 33.0595224 25.835495 33.04278564 C23.58742792 32.88665683 23.58742792 32.88665683 22.55371094 34.14526367 Z "
    fill="#00CBCB" transform="translate(55.4462890625,87.854736328125)" />
  <path
    d="M0 0 C1.0040191 -0.00175304 2.00803819 -0.00350607 3.04248211 -0.00531223 C6.40384806 -0.00996088 9.76517054 -0.00750965 13.12653828 -0.00507832 C15.56208545 -0.00694686 17.99763232 -0.00924773 20.43317872 -0.01194364 C25.72716034 -0.01678511 31.02112937 -0.01851661 36.31511211 -0.01748753 C44.18777433 -0.01596092 52.06042644 -0.02012808 59.93308669 -0.02536215 C74.8131107 -0.03502874 89.69313127 -0.03784614 104.57315805 -0.03841921 C116.06548323 -0.03887892 127.55780706 -0.04093812 139.0501318 -0.04411983 C142.35932058 -0.04501739 145.66850936 -0.04590721 148.97769815 -0.04679471 C149.8003958 -0.04701576 150.62309345 -0.04723681 151.47072134 -0.04746456 C174.6091861 -0.05361805 197.7476504 -0.05756519 220.88611603 -0.05712128 C221.75833924 -0.0571057 222.63056245 -0.05709012 223.52921667 -0.05707407 C227.94990838 -0.05699096 232.37060009 -0.05689192 236.7912918 -0.05678936 C237.66924132 -0.05676942 238.54719084 -0.05674947 239.45174489 -0.05672892 C241.2271727 -0.05668848 243.00260052 -0.05664669 244.77802833 -0.05660353 C272.39789112 -0.05599084 300.01774163 -0.06349647 327.6376009 -0.07717609 C358.67577776 -0.09254245 389.71394656 -0.10114198 420.75212747 -0.10021287 C424.06288803 -0.10013824 427.37364858 -0.10008954 430.68440914 -0.10005856 C431.49958865 -0.1000469 432.31476816 -0.10003525 433.15465008 -0.10002324 C446.26297213 -0.09999249 459.3712835 -0.10637356 472.47960238 -0.11499082 C485.6579917 -0.12347486 498.83636544 -0.12445137 512.01475599 -0.1178815 C519.83922422 -0.11419086 527.66364504 -0.11600366 535.48810824 -0.12582384 C541.33716492 -0.13254318 547.1861847 -0.12875726 553.03524105 -0.12095062 C555.39657861 -0.11941417 557.75792133 -0.12123723 560.11925282 -0.12681069 C599.91590009 -0.21450142 599.91590009 -0.21450142 615.02993488 14.25363445 C623.60544166 23.87102523 627.85174307 34.26837991 627.8489809 47.03953838 C627.85265759 47.94991059 627.85633428 48.86028279 627.86012238 49.79824203 C627.87115538 52.85572553 627.87500244 55.91317504 627.87881184 58.97067547 C627.88507684 61.16028737 627.89172368 63.3498982 627.89872456 65.53950787 C627.91976526 72.73717795 627.93012787 79.93484824 627.94009113 87.1325407 C627.94413887 89.61122365 627.9482558 92.08990649 627.95244122 94.56858921 C627.97040107 105.54727459 627.98477875 116.52595538 627.99261762 127.50465285 C627.99405605 129.51285832 627.99550743 131.52106377 627.9969759 133.52926922 C627.99745964 134.19401951 627.99794338 134.85876979 627.99844178 135.54366403 C628.00673517 146.30279841 628.03206084 157.06182136 628.06455658 167.82090712 C628.0976796 178.8782616 628.11531112 189.93555667 628.1188342 200.99296039 C628.12118297 207.19670737 628.13012106 213.40027825 628.15529537 219.60397816 C628.17861054 225.44397119 628.18279527 231.28367259 628.17253399 237.12370014 C628.17203934 239.26218162 628.17833874 241.40067763 628.19209003 243.53911495 C628.27902594 257.86488746 627.35834153 269.18771286 618.70180988 281.12863445 C618.28415363 281.72289227 617.86649738 282.31715008 617.43618488 282.9294157 C610.78280527 291.55204273 599.38578821 297.95694361 588.58819245 299.41381552 C582.46600324 300.05124924 576.43040461 300.27104135 570.27777863 300.25726891 C569.27230609 300.25902194 568.26683355 300.26077498 567.23089215 300.26258114 C563.87061344 300.26722325 560.51037833 300.26478026 557.15009785 300.26234722 C554.71297493 300.26421609 552.2758523 300.26651709 549.83873016 300.26921254 C544.54443093 300.27405129 539.25014428 300.27578608 533.95584393 300.27475643 C526.08277895 300.27322901 518.20972406 300.27739875 510.33666104 300.28263106 C495.45616373 300.29229434 480.57566986 300.29511491 465.69516977 300.29568812 C454.20333665 300.29614789 442.71150488 300.29820747 431.2196722 300.30138874 C427.91016907 300.3022863 424.60066593 300.30317611 421.29116279 300.30406362 C420.05699347 300.30439519 420.05699347 300.30439519 418.79789143 300.30473346 C395.65978114 300.31088626 372.52167132 300.31483416 349.38356018 300.31439018 C348.51147777 300.3143746 347.63939535 300.31435903 346.7408862 300.31434297 C342.32093735 300.31425987 337.90098851 300.31416083 333.48103967 300.31405827 C332.60324129 300.31403832 331.72544291 300.31401838 330.82104458 300.31399783 C329.0459235 300.31395739 327.27080241 300.31391559 325.49568133 300.31387244 C297.87566488 300.31325964 270.25566071 300.32076767 242.63564777 300.334445 C211.59600833 300.34980943 180.55637695 300.35841102 149.51673347 300.35748178 C146.20628726 300.35740715 142.89584106 300.35735844 139.58539486 300.35732746 C138.77029443 300.35731581 137.955194 300.35730415 137.11539355 300.35729215 C124.00599914 300.35726139 110.89661539 300.36364352 97.78722415 300.37225973 C84.61009438 300.38074128 71.4329802 300.38172219 58.2558492 300.3751504 C50.43116558 300.37145829 42.60652936 300.37327704 34.78185078 300.38309274 C28.93445227 300.3898073 23.08709071 300.38603029 17.23969255 300.37821952 C14.87772972 300.37668194 12.51576174 300.37851039 10.15380498 300.3840796 C-10.18753928 300.42885861 -28.68457286 300.42505461 -44.33334637 285.3591032 C-50.08671934 278.82793825 -54.22212423 271.59259539 -56.29819012 263.12863445 C-56.47076714 262.44093786 -56.64334415 261.75324127 -56.82115078 261.04470539 C-57.45650853 257.16085743 -57.44278628 253.32481837 -57.43863201 249.40118694 C-57.44308869 248.08334963 -57.44308869 248.08334963 -57.44763541 246.73888934 C-57.45630668 243.79506424 -57.45782934 240.8512799 -57.45932293 237.90744305 C-57.46395227 235.7965006 -57.46897709 233.68555898 -57.4743681 231.57461834 C-57.4874842 225.83882189 -57.49393569 220.10303714 -57.49837875 214.36722803 C-57.50131117 210.78190326 -57.50541633 207.19658167 -57.50988293 203.61125851 C-57.52355669 192.3884528 -57.53322356 181.16565439 -57.53708482 169.94284093 C-57.54156334 156.997719 -57.55910228 144.05270277 -57.58808541 131.10761297 C-57.60972172 121.0955313 -57.61979017 111.08347933 -57.62112594 101.07137454 C-57.6221727 95.09459438 -57.62805304 89.1179136 -57.64594555 83.1411581 C-57.66245951 77.51540732 -57.66456552 71.88983026 -57.65580654 66.26406384 C-57.65503791 64.20460195 -57.65935581 62.1451306 -57.66926479 60.08569241 C-57.75135014 41.95524134 -55.74773445 27.0958812 -42.74740887 13.38644695 C-30.58713065 2.17649351 -15.86250181 -0.03541736 0 0 Z M-38.84115887 22.29269695 C-48.91272657 34.98341229 -48.74064608 48.27942904 -48.70224285 63.81564617 C-48.70795235 65.90452723 -48.71491884 67.99340518 -48.72304058 70.08227825 C-48.74092343 75.73112523 -48.7398127 81.37981645 -48.7340982 87.02868319 C-48.73099915 91.75511538 -48.73710679 96.48151797 -48.74313694 101.20794594 C-48.7571647 112.36366293 -48.75563556 123.51930331 -48.74423504 134.67502117 C-48.73275673 146.16022494 -48.74682881 157.64519512 -48.77363151 169.13036811 C-48.79582687 179.0135305 -48.80241721 188.89661977 -48.7965551 198.7798053 C-48.79319338 204.6727385 -48.79554839 210.56552201 -48.81280613 216.4584341 C-48.82833421 222.00225967 -48.8242547 227.54574064 -48.80550098 233.08955288 C-48.80183126 235.11592324 -48.80487601 237.14231946 -48.81538677 239.16866589 C-48.88798655 254.3307485 -48.34229269 267.5440758 -37.29819012 279.12863445 C-36.77483074 279.69195477 -36.25147137 280.25527508 -35.71225262 280.8356657 C-25.92224 290.26750712 -12.9812566 291.28589137 -0.1174612 291.25726891 C0.88600324 291.25902194 1.88946768 291.26077498 2.92334014 291.26258114 C6.28882126 291.26723637 9.65425909 291.26477685 13.01974201 291.26234722 C15.45585152 291.26421543 17.89196072 291.26651617 20.32806945 291.26921254 C25.62632449 291.27405673 30.92456697 291.27578497 36.22282314 291.27475643 C44.1017489 291.27323066 51.98066457 291.27739513 59.85958837 291.28263106 C74.75077621 291.29230053 89.64196062 291.29511515 104.53315124 291.29568812 C116.03314529 291.29614771 127.53313799 291.29820631 139.0331316 291.30138874 C142.34373784 291.30228629 145.65434408 291.3031761 148.96495032 291.30406362 C150.19950014 291.30439519 150.19950014 291.30439519 151.45899036 291.30473346 C174.60852978 291.31088741 197.75806872 291.31483405 220.90760899 291.31439018 C221.78034865 291.3143746 222.65308831 291.31435903 223.55227464 291.31434297 C227.9756531 291.31425987 232.39903156 291.31416083 236.82241002 291.31405827 C238.1401514 291.31402835 238.1401514 291.31402835 239.48451382 291.31399783 C241.26104317 291.31395739 243.03757252 291.31391559 244.81410187 291.31387244 C272.45392256 291.31325968 300.09373098 291.32076634 327.73354816 291.334445 C358.78891149 291.34980765 389.84426676 291.35841112 420.89963412 291.35748178 C424.21149778 291.35740715 427.52336144 291.35735844 430.83522511 291.35732746 C432.05841639 291.35730998 432.05841639 291.35730998 433.30631861 291.35729215 C446.42531876 291.35726138 459.54430826 291.36364538 472.66330524 291.37225973 C485.84962346 291.38073916 499.0359261 291.38172387 512.22224554 291.3751504 C520.05379453 291.37145674 527.88529616 291.37328165 535.71684012 291.38309274 C541.56765637 291.38980252 547.41843565 291.38603441 553.26925156 291.37821952 C555.63394815 291.37668079 557.99864986 291.37851471 560.36334041 291.3840796 C587.11795935 291.63501469 587.11795935 291.63501469 609.65884113 278.4294157 C617.70882785 269.36356068 620.01882331 258.86140546 619.96250629 247.07202435 C619.96633184 246.20638265 619.97015739 245.34074095 619.97409886 244.44886768 C619.984348 241.57269149 619.98045219 238.69671795 619.97646809 235.82052898 C619.98081904 233.74840391 619.98600346 231.67628045 619.99195576 229.60415936 C620.0053157 223.99254423 620.00592777 218.38099658 620.00339246 212.76936865 C620.00232071 208.07764868 620.00721132 203.38594225 620.01199788 198.69422519 C620.02308266 187.62205829 620.02353624 176.54992531 620.01748371 165.47775555 C620.01144397 154.07098284 620.02375736 142.66433349 620.04505378 131.25758183 C620.06268988 121.4492337 620.06866797 111.64092477 620.06541604 101.83256137 C620.06360626 95.98104457 620.06620894 90.12961576 620.08013058 84.27811337 C620.09273695 78.77377221 620.09073817 73.26962287 620.07771969 67.76528454 C620.07536049 65.75097494 620.07806492 63.73665172 620.08634281 61.72235775 C620.1449523 46.34601892 619.41161607 32.9790105 608.73305988 20.90207195 C597.71691027 10.24514461 584.96384376 8.9675019 570.39523983 9 C569.39032194 8.99824696 568.38540406 8.99649393 567.35003412 8.99468777 C563.98564023 8.99003909 560.62128978 8.99249036 557.25689411 8.99492168 C554.81920886 8.99305315 552.38152391 8.99075228 549.94383943 8.98805636 C544.64526677 8.9832149 539.34670668 8.98148338 534.0481329 8.98251247 C526.16880437 8.98403906 518.28948593 8.97987201 510.41015937 8.97463785 C495.51849821 8.96497168 480.6268405 8.96215389 465.73517658 8.96158079 C454.23567459 8.96112113 442.73617395 8.95906215 431.2366724 8.95588017 C427.92575181 8.95498262 424.61483121 8.9540928 421.30391061 8.95320529 C420.4807955 8.95298424 419.65768039 8.95276319 418.8096224 8.95253544 C395.66043747 8.94638219 372.51125301 8.94243479 349.36206722 8.94287872 C348.48946836 8.9428943 347.61686949 8.94290988 346.71782823 8.94292593 C342.29519264 8.94300904 337.87255704 8.94310808 333.44992144 8.94321064 C332.13240677 8.94324056 332.13240677 8.94324056 330.78827565 8.94327108 C329.01205303 8.94331152 327.23583041 8.94335331 325.45960779 8.94339647 C297.81963344 8.94400933 270.17967135 8.93650027 242.53970051 8.92282391 C211.4828746 8.90746318 180.42605676 8.89885765 149.36922681 8.89978713 C146.05767751 8.89986176 142.7461282 8.89991047 139.4345789 8.89994144 C138.61919712 8.8999531 137.80381534 8.89996475 136.96372502 8.89997676 C123.84365251 8.90000753 110.72359064 8.89362247 97.60352129 8.88500918 C84.41846262 8.87653222 71.23341953 8.87554311 58.04835965 8.8821185 C50.21659528 8.88581365 42.38487825 8.8839828 34.5531189 8.87417616 C28.70396082 8.86747116 22.85483976 8.87123036 17.00568204 8.87904938 C14.64036018 8.88058925 12.27503321 8.87874996 9.9097174 8.87318931 C6.69308186 8.8661281 3.47668955 8.87142393 0.26006222 8.87974548 C-0.65663616 8.8747773 -1.57333454 8.86980912 -2.51781166 8.86469039 C-16.017697 8.93844624 -29.46819308 11.8478835 -38.84115887 22.29269695 Z "
    fill="#00CBCB" transform="translate(57.298190116882324,34.871365547180176)" />
  <path
    d="M0 0 C85.25904255 0 85.25904255 0 97.03125 10.0234375 C104.98258932 18.00632976 108.36942974 27.9571332 109.125 39.0703125 C108.68938369 49.28006981 104.42479014 57.92449212 97.05859375 64.81640625 C95.40355484 66.25746033 93.72917085 67.64940502 92 69 C92.92619141 69.47566406 92.92619141 69.47566406 93.87109375 69.9609375 C103.52985169 75.28281022 110.5925257 82.16887986 114.34375 92.67578125 C117.39056689 103.46659108 117.64480779 117.29117331 112.77734375 127.5859375 C106.13185742 139.38832122 96.9418681 146.20669383 84 150 C75.18264395 152.3992887 66.39790916 152.27545444 57.34375 152.23046875 C55.74857623 152.22927444 54.15340174 152.22882432 52.55822754 152.2290802 C49.23668942 152.22752561 45.91526065 152.21930933 42.59375 152.20581055 C38.33215191 152.18871091 34.07067228 152.18499993 29.80904388 152.18575573 C26.52517564 152.18548441 23.24133338 152.18001108 19.95747375 152.17275429 C18.38495581 152.16957061 16.81243493 152.16760091 15.23991394 152.16686058 C13.05246909 152.1647001 10.86515192 152.15596554 8.67773438 152.14526367 C7.43326538 152.14145187 6.18879639 152.13764008 4.90661621 152.13371277 C2 152 2 152 0 151 C0 101.17 0 51.34 0 0 Z M25 24 C25 36.54 25 49.08 25 62 C31.2633704 62.11513549 37.52303342 62.21457006 43.78662109 62.2746582 C45.91467771 62.29971889 48.04264897 62.33377691 50.17041016 62.37719727 C53.23882163 62.43822089 56.30608995 62.46629474 59.375 62.48828125 C60.31802979 62.51408768 61.26105957 62.5398941 62.23266602 62.56648254 C68.74729042 62.56921519 72.94329291 61.15227765 78 57 C81.87031659 52.92598254 83.73110598 49.33041485 84.375 43.75 C83.7769627 37.76962701 81.84338631 32.89189647 77.625 28.5625 C71.47841513 24.90381853 65.75355247 24.67230371 58.7890625 24.5859375 C57.82092621 24.56657135 56.85278992 24.5472052 55.85531616 24.5272522 C52.7786323 24.4677167 49.70191049 24.4211753 46.625 24.375 C44.53253623 24.33679627 42.44008778 24.29774315 40.34765625 24.2578125 C35.23185287 24.1604459 30.11620266 24.08067042 25 24 Z M25 86 C25 99.86 25 113.72 25 128 C31.547438 128.06905501 38.09360063 128.12873504 44.64111328 128.16479492 C46.86609185 128.17983512 49.09104101 128.20027246 51.31591797 128.22631836 C54.52318606 128.26291135 57.73006045 128.2797745 60.9375 128.29296875 C61.92427734 128.30845261 62.91105469 128.32393646 63.92773438 128.33988953 C72.47982276 128.34195025 79.1624957 126.43892388 86 121 C90.58588174 115.91834726 91.20258511 110.63005799 91 104 C90.26019325 98.49446141 88.56564506 95.03482194 84.1875 91.5625 C77.43369178 86.83079005 70.66394944 86.67437254 62.6953125 86.5859375 C61.61619598 86.56657135 60.53707947 86.5472052 59.42526245 86.5272522 C55.99192105 86.46766058 52.55854576 86.42115239 49.125 86.375 C46.79165236 86.33680147 44.45831854 86.29774865 42.125 86.2578125 C36.41674016 86.16037421 30.70862055 86.08064222 25 86 Z "
    fill="#00CBCB" transform="translate(504,90)" />
  <path
    d="M0 0 C8.54572328 -0.04657127 17.09139253 -0.08199411 25.6372118 -0.10362434 C29.60641308 -0.11401164 33.57552682 -0.12807714 37.54467773 -0.15087891 C41.38317906 -0.1727893 45.22159678 -0.18460652 49.06015587 -0.18975449 C50.51639813 -0.19341788 51.9726364 -0.20057041 53.42884254 -0.21146011 C70.69820531 -0.33533429 85.07448408 1.72920792 98 14 C103.36870588 19.74821784 107.34548279 25.58837769 110 33 C110.35449219 33.89074219 110.70898438 34.78148437 111.07421875 35.69921875 C113.96959712 46.02240325 113.05811766 58.36744934 108.67578125 68.0703125 C102.92408911 78.12571834 94.91453191 86.77360315 84 91 C86.18494603 94.84237214 88.37212877 98.68345999 90.5612793 102.5234375 C91.30373834 103.8264829 92.04561407 105.12986086 92.78686523 106.43359375 C96.42037487 112.82347448 100.05385003 119.1983764 104.00024414 125.40234375 C105.39517908 127.63151451 106.64124318 129.92849308 107.875 132.25 C110.66517255 137.44524315 113.64300958 142.51184927 116.6796875 147.56640625 C118 150 118 150 118 152 C114.06739056 152.07421454 110.13505278 152.12863136 106.2019043 152.16479492 C104.20672299 152.18728333 102.21173787 152.22540198 100.21679688 152.26367188 C98.33637695 152.27817383 98.33637695 152.27817383 96.41796875 152.29296875 C94.68196411 152.31653442 94.68196411 152.31653442 92.91088867 152.34057617 C90 152 90 152 88.20727539 150.65942383 C86.32174175 148.06772066 84.78365479 145.30717428 83.25 142.5 C82.87584961 141.82582031 82.50169922 141.15164062 82.11621094 140.45703125 C80.73928459 137.97401379 79.36990229 135.48689954 78 133 C75.75202557 128.93223674 73.5008575 124.86626162 71.24743652 120.80151367 C70.268589 119.0335744 69.29281383 117.26396664 68.31738281 115.49414062 C65.66183557 110.69495886 63.00596321 105.93217357 60.046875 101.3125 C58 98 58 98 58 96 C47.11 96 36.22 96 25 96 C25 114.15 25 132.3 25 151 C22.51004335 152.24497833 20.81005089 152.12934372 18.02734375 152.1328125 C16.55491211 152.13474609 16.55491211 152.13474609 15.05273438 152.13671875 C14.02470703 152.13285156 12.99667969 152.12898437 11.9375 152.125 C10.90560547 152.12886719 9.87371094 152.13273438 8.81054688 152.13671875 C7.83021484 152.13542969 6.84988281 152.13414062 5.83984375 152.1328125 C4.93613037 152.13168457 4.03241699 152.13055664 3.10131836 152.12939453 C1 152 1 152 0 151 C-0.09664967 149.05105041 -0.12187121 147.09854545 -0.12025452 145.14720154 C-0.12162918 143.87528961 -0.12300385 142.60337769 -0.12442017 141.29292297 C-0.12088055 139.87033058 -0.11724573 138.44773842 -0.11352539 137.02514648 C-0.11324353 135.53733319 -0.11340124 134.04951976 -0.1139679 132.56170654 C-0.1142559 128.51023 -0.10835867 124.4587828 -0.10139394 120.40731311 C-0.09516092 116.17788003 -0.09455664 111.94844636 -0.09336853 107.7190094 C-0.09025506 99.70440278 -0.08204146 91.68980973 -0.07201904 83.67520911 C-0.06085839 74.55323316 -0.05534758 65.43125658 -0.05032361 56.30927551 C-0.03985886 37.5395093 -0.02225912 18.76975574 0 0 Z M25 24 C25 39.51 25 55.02 25 71 C31.72646057 71.06895005 38.45168999 71.12866185 45.17822266 71.16479492 C47.46537435 71.17986116 49.75249725 71.20031797 52.03955078 71.22631836 C55.33112707 71.26279606 58.62232062 71.27974834 61.9140625 71.29296875 C63.44252304 71.31619453 63.44252304 71.31619453 65.00186157 71.33988953 C71.34456067 71.34138578 75.8897414 70.74473676 80.828125 66.38671875 C86.95281437 59.06737843 87.79248447 52.42313563 87 43 C85.46717668 35.70711406 81.11320563 31.0117912 75 27 C70.09392113 24.38205289 65.09111418 24.65105681 59.66796875 24.5859375 C58.78838501 24.56829346 57.90880127 24.55064941 57.00256348 24.5324707 C53.73105829 24.46961947 50.45925261 24.42328395 47.1875 24.375 C39.865625 24.25125 32.54375 24.1275 25 24 Z "
    fill="#00CBCB" transform="translate(220,90)" />
  <path
    d="M0 0 C1.87346352 -0.00956978 1.87346352 -0.00956978 3.78477478 -0.01933289 C5.16193605 -0.02086277 6.53909784 -0.02197609 7.91625977 -0.02270508 C9.32577041 -0.02591857 10.73528071 -0.02928271 12.14479065 -0.03279114 C15.10988129 -0.03879397 18.07494277 -0.0406302 21.04003906 -0.04003906 C24.81576239 -0.03993816 28.59129461 -0.05351006 32.36697292 -0.07081127 C35.28488498 -0.082013 38.20275233 -0.08395567 41.12068367 -0.08342934 C42.51075961 -0.08460027 43.90083705 -0.08897154 45.29089165 -0.0967617 C61.55596469 -0.17927361 74.7840417 2.32152077 87.10766602 13.58276367 C96.18819285 23.0459947 100.79337699 35.12809999 101.17016602 48.14526367 C100.53042958 60.9917806 95.03357389 72.91669667 86.17016602 82.14526367 C75.26530016 91.345239 64.60804348 95.36776511 50.42016602 95.55932617 C49.52144775 95.57869232 48.62272949 95.59805847 47.69677734 95.61801147 C44.85466706 95.67730975 42.01251517 95.72399175 39.17016602 95.77026367 C37.23134725 95.80848934 35.29254464 95.84754367 33.35375977 95.88745117 C28.62602791 95.98296977 23.89821669 96.06718228 19.17016602 96.14526367 C19.17682785 96.81733856 19.18348969 97.48941345 19.19035339 98.18185425 C19.25656027 105.15675081 19.30190553 112.13155858 19.33496094 119.10668945 C19.3500771 121.71219506 19.37057033 124.31767512 19.39648438 126.9230957 C19.4327429 130.66127823 19.449864 134.39912532 19.46313477 138.13745117 C19.47861862 139.30831268 19.49410248 140.47917419 19.51005554 141.68551636 C19.51028214 142.7664859 19.51050873 143.84745544 19.51074219 144.96118164 C19.51740402 145.91604462 19.52406586 146.87090759 19.53092957 147.85470581 C19.41187759 148.6105899 19.29282562 149.366474 19.17016602 150.14526367 C15.94277339 152.29685875 15.07098622 152.39367304 11.35375977 152.37573242 C9.96060547 152.37283203 9.96060547 152.37283203 8.53930664 152.36987305 C7.57186523 152.35762695 6.60442383 152.34538086 5.60766602 152.33276367 C4.63635742 152.33211914 3.66504883 152.33147461 2.66430664 152.33081055 C-4.54896884 152.28569625 -4.54896884 152.28569625 -6.82983398 151.14526367 C-6.85316156 131.60496572 -6.87081246 112.06467058 -6.88164616 92.52436161 C-6.88680941 83.45210874 -6.89385268 74.37986451 -6.90527344 65.30761719 C-6.91521937 57.40317655 -6.92168719 49.49874216 -6.92392248 41.59429544 C-6.92522974 37.40631648 -6.92831657 33.2183554 -6.93556404 29.03038216 C-6.94232282 25.09311069 -6.94445124 21.15586459 -6.94294167 17.21858788 C-6.94321806 15.7693175 -6.94522403 14.32004632 -6.94903946 12.87078094 C-6.95397442 10.90055953 -6.95223207 8.93032469 -6.9500885 6.96009827 C-6.95101029 5.85486848 -6.95193209 4.74963869 -6.95288181 3.61091709 C-6.71953179 -1.06499053 -4.09159135 0.01411981 0 0 Z M18.17016602 25.14526367 C18.1448954 31.53563598 18.12733284 37.9259955 18.11523438 44.31640625 C18.11019294 46.4921924 18.10335994 48.66797514 18.09472656 50.84375 C18.08265264 53.96379434 18.07693597 57.08379406 18.07250977 60.20385742 C18.06734848 61.1830162 18.06218719 62.16217499 18.05686951 63.17100525 C18.05679398 64.07186356 18.05671844 64.97272186 18.05664062 65.90087891 C18.05442001 66.69807846 18.0521994 67.49527802 18.0499115 68.31663513 C17.96966146 70.16448648 17.96966146 70.16448648 19.17016602 71.14526367 C21.88830639 71.27130686 24.57958324 71.33395886 27.29907227 71.34838867 C28.12213364 71.35408875 28.94519501 71.35978882 29.79319763 71.36566162 C31.54261992 71.37513154 33.29206021 71.38165347 35.04150391 71.38549805 C37.69734835 71.39513551 40.35239632 71.4261104 43.00805664 71.45776367 C44.70922393 71.46430049 46.41039675 71.46954829 48.11157227 71.47338867 C49.29173668 71.49190887 49.29173668 71.49190887 50.4957428 71.51080322 C56.7837185 71.48587335 62.43598162 70.42216287 67.41235352 66.27807617 C68.2205957 65.28420898 68.2205957 65.28420898 69.04516602 64.27026367 C69.59946289 63.6128418 70.15375977 62.95541992 70.72485352 62.27807617 C75.48066737 55.26003736 74.79712202 47.26312256 74.17016602 39.14526367 C72.7682533 32.85076966 68.98382853 29.79707803 63.72097778 26.40228271 C59.46512309 24.30503255 55.55010038 24.39775163 50.88500977 24.55932617 C49.94331436 24.56781586 49.00161896 24.57630554 48.03138733 24.58505249 C45.05559554 24.61834958 42.08262342 24.69358081 39.10766602 24.77026367 C37.07710649 24.80039403 35.04650403 24.82776442 33.01586914 24.85229492 C28.066233 24.91806276 23.11867568 25.02141597 18.17016602 25.14526367 Z "
    fill="#00CBCB" transform="translate(374.829833984375,89.854736328125)" />
</svg>